<svg width="24" height="24" viewBox="0 0 24 24" fill="none" xmlns="http://www.w3.org/2000/svg">
<rect x="3" width="18" height="24" fill="#FEE643"/>
<path fill-rule="evenodd" clip-rule="evenodd" d="M1 22H3V0H21V22H23V24H1V22ZM8 19V23H11V19H8ZM13 19V23H16V19H13ZM7 14H5V16H7V14ZM15 14H13V16H15V14ZM11 14H9V16H11V14ZM19 14H17V16H19V14ZM7 10H5V12H7V10ZM15 10H13V12H15V10ZM11 10H9V12H11V10ZM19 10H17V12H19V10ZM7 6H5V8H7V6ZM15 6H13V8H15V6ZM11 6H9V8H11V6ZM19 6H17V8H19V6ZM7 2H5V4H7V2ZM15 2H13V4H15V2ZM11 2H9V4H11V2ZM19 2H17V4H19V2Z" fill="#1E5AF6"/>
</svg>
