<svg width="263" height="400" viewBox="0 0 263 400" fill="none" xmlns="http://www.w3.org/2000/svg">
<ellipse cx="42.5" cy="88" rx="23.5" ry="27" fill="#FEE643"/>
<ellipse cx="222.5" cy="88" rx="23.5" ry="27" fill="#FEE643"/>
<path d="M262.82 75.059C262.82 66.468 251.408 59.145 235.404 56.332V46.739H230.305C226.525 20.352 203.783 0 176.367 0C158.005 0 141.746 9.138 131.867 23.095C121.988 9.138 105.73 0 87.367 0C59.951 0 37.209 20.352 33.429 46.739H28.33V56.332C12.327 59.145 0.914001 66.468 0.914001 75.059H15.392C14.896 77.91 14.628 80.841 14.628 83.807C14.628 104.782 27.296 121.846 42.867 121.846C58.438 121.846 71.106 104.782 71.106 83.807C71.106 80.841 70.838 77.91 70.343 75.059H84.82C84.82 66.468 73.408 59.145 57.404 56.332V46.739H53.758C57.29 31.442 71.013 20 87.367 20C106.39 20 121.867 35.477 121.867 54.5V363.734H103.928C84.042 363.734 67.928 379.853 67.928 399.734H195.804C195.804 379.853 179.691 363.734 159.809 363.734H141.867V54.5C141.867 35.477 157.344 20 176.367 20C192.722 20 206.444 31.442 209.976 46.739H206.33V56.332C190.327 59.145 178.914 66.468 178.914 75.059H193.392C192.896 77.91 192.628 80.841 192.628 83.807C192.628 104.782 205.296 121.846 220.867 121.846C236.438 121.846 249.106 104.782 249.106 83.807C249.106 80.841 248.838 77.91 248.343 75.059H262.82V75.059ZM63.107 83.806C63.107 100.369 54.028 113.845 42.868 113.845C31.708 113.845 22.628 100.37 22.628 83.806C22.628 80.817 22.938 77.877 23.526 75.058H62.209C62.797 77.877 63.107 80.816 63.107 83.806ZM241.107 83.806C241.107 100.369 232.028 113.845 220.868 113.845C209.708 113.845 200.629 100.37 200.629 83.806C200.629 80.817 200.939 77.877 201.527 75.058H240.21C240.797 77.877 241.107 80.816 241.107 83.806Z" fill="#1E5AF6"/>
</svg>
